<svg xmlns="http://www.w3.org/2000/svg" viewBox="0 0 4898.34 736.89"><defs><style>.cls-1{fill:#c54361;}.cls-2{fill:none;stroke:#c54361;stroke-miterlimit:10;stroke-width:25px;}</style></defs><title>stages</title><g id="Layer_4" data-name="Layer 4"><path class="cls-1" d="M258,112.45c-141.16,0-256,114.83-256,256s114.84,256,256,256,256-114.84,256-256S399.16,112.45,258,112.45ZM243,238.1a350.33,350.33,0,0,1-67-9.4c3.44-8.17,7.18-16,11.21-23.43,16.54-30.48,36.85-51.87,55.77-59.61Zm0,30v85.33H149.31A376.76,376.76,0,0,1,165.69,257,380.22,380.22,0,0,0,243,268.12Zm0,115.33v85.32a380.22,380.22,0,0,0-77.31,11.1,376.76,376.76,0,0,1-16.38-96.42Zm0,115.34v92.44c-18.92-7.74-39.23-29.13-55.77-59.61-4-7.42-7.77-15.26-11.21-23.43A350.33,350.33,0,0,1,243,498.79Zm30,0a350.33,350.33,0,0,1,67,9.4c-3.44,8.17-7.18,16-11.21,23.43-16.54,30.48-36.85,51.87-55.77,59.61Zm0-30V383.45h93.69a376.76,376.76,0,0,1-16.38,96.42A380.22,380.22,0,0,0,273,468.77Zm0-115.32V268.12A380.22,380.22,0,0,0,350.31,257a376.76,376.76,0,0,1,16.38,96.43Zm0-115.35V145.66c18.92,7.74,39.23,29.13,55.77,59.61,4,7.43,7.77,15.26,11.21,23.43A350.33,350.33,0,0,1,273,238.1ZM355.13,191a227.47,227.47,0,0,0-24.27-36.46,226.36,226.36,0,0,1,80,47.64A283,283,0,0,1,369,220.25,301.22,301.22,0,0,0,355.13,191Zm-194.26,0A301.22,301.22,0,0,0,147,220.25a283,283,0,0,1-41.85-18.11,226.36,226.36,0,0,1,80-47.64A227.47,227.47,0,0,0,160.87,191Zm-24,57.49a401.33,401.33,0,0,0-17.55,105H32.51A225,225,0,0,1,83.8,224.61,308.38,308.38,0,0,0,136.83,248.45Zm-17.55,135a401.32,401.32,0,0,0,17.55,105,308.38,308.38,0,0,0-53,23.84A225,225,0,0,1,32.51,383.45ZM147,516.64a301.22,301.22,0,0,0,13.89,29.29,227.47,227.47,0,0,0,24.27,36.46,226.23,226.23,0,0,1-80-47.64A282.38,282.38,0,0,1,147,516.64Zm208.15,29.29A301.22,301.22,0,0,0,369,516.64a283,283,0,0,1,41.85,18.11,226.36,226.36,0,0,1-80,47.64A227.47,227.47,0,0,0,355.13,545.93Zm24-57.49a401.32,401.32,0,0,0,17.55-105h86.77A225,225,0,0,1,432.2,512.28,308.38,308.38,0,0,0,379.17,488.44Zm17.55-135a401.33,401.33,0,0,0-17.55-105,308.38,308.38,0,0,0,53-23.84,225,225,0,0,1,51.29,128.84Z"/><path class="cls-1" d="M257,112.45c-141.16,0-256,114.83-256,256s114.84,256,256,256,256-114.84,256-256S398.16,112.45,257,112.45ZM242,238.1a350.33,350.33,0,0,1-67-9.4c3.44-8.17,7.18-16,11.21-23.43,16.54-30.48,36.85-51.87,55.77-59.61Zm0,30v85.33H148.31A376.76,376.76,0,0,1,164.69,257,380.22,380.22,0,0,0,242,268.12Zm0,115.33v85.32a380.22,380.22,0,0,0-77.31,11.1,376.76,376.76,0,0,1-16.38-96.42Zm0,115.34v92.44c-18.92-7.74-39.23-29.13-55.77-59.61-4-7.42-7.77-15.26-11.21-23.43A350.33,350.33,0,0,1,242,498.79Zm30,0a350.33,350.33,0,0,1,67,9.4c-3.44,8.17-7.18,16-11.21,23.43-16.54,30.48-36.85,51.87-55.77,59.61Zm0-30V383.45h93.69a376.76,376.76,0,0,1-16.38,96.42A380.22,380.22,0,0,0,272,468.77Zm0-115.32V268.12A380.22,380.22,0,0,0,349.31,257a376.76,376.76,0,0,1,16.38,96.43Zm0-115.35V145.66c18.92,7.74,39.23,29.13,55.77,59.61,4,7.43,7.77,15.26,11.21,23.43A350.33,350.33,0,0,1,272,238.1ZM354.13,191a227.47,227.47,0,0,0-24.27-36.46,226.36,226.36,0,0,1,80,47.64A283,283,0,0,1,368,220.25,301.22,301.22,0,0,0,354.13,191Zm-194.26,0A301.22,301.22,0,0,0,146,220.25a283,283,0,0,1-41.85-18.11,226.36,226.36,0,0,1,80-47.64A227.47,227.47,0,0,0,159.87,191Zm-24,57.49a401.33,401.33,0,0,0-17.55,105H31.51A225,225,0,0,1,82.8,224.61,308.38,308.38,0,0,0,135.83,248.45Zm-17.55,135a401.32,401.32,0,0,0,17.55,105,308.38,308.38,0,0,0-53,23.84A225,225,0,0,1,31.51,383.45ZM146,516.64a301.22,301.22,0,0,0,13.89,29.29,227.47,227.47,0,0,0,24.27,36.46,226.23,226.23,0,0,1-80-47.64A282.38,282.38,0,0,1,146,516.64Zm208.15,29.29A301.22,301.22,0,0,0,368,516.64a283,283,0,0,1,41.85,18.11,226.36,226.36,0,0,1-80,47.64A227.47,227.47,0,0,0,354.13,545.93Zm24-57.49a401.32,401.32,0,0,0,17.55-105h86.77A225,225,0,0,1,431.2,512.28,308.38,308.38,0,0,0,378.17,488.44Zm17.55-135a401.33,401.33,0,0,0-17.55-105,308.38,308.38,0,0,0,53-23.84,225,225,0,0,1,51.29,128.84Z"/><path class="cls-1" d="M256,112.45c-141.16,0-256,114.83-256,256s114.84,256,256,256,256-114.84,256-256S397.16,112.45,256,112.45ZM241,238.1a350.33,350.33,0,0,1-67-9.4c3.44-8.17,7.18-16,11.21-23.43,16.54-30.48,36.85-51.87,55.77-59.61Zm0,30v85.33H147.31A376.76,376.76,0,0,1,163.69,257,380.22,380.22,0,0,0,241,268.12Zm0,115.33v85.32a380.22,380.22,0,0,0-77.31,11.1,376.76,376.76,0,0,1-16.38-96.42Zm0,115.34v92.44c-18.92-7.74-39.23-29.13-55.77-59.61-4-7.42-7.77-15.26-11.21-23.43A350.33,350.33,0,0,1,241,498.79Zm30,0a350.33,350.33,0,0,1,67,9.4c-3.44,8.17-7.18,16-11.21,23.43-16.54,30.48-36.85,51.87-55.77,59.61Zm0-30V383.45h93.69a376.76,376.76,0,0,1-16.38,96.42A380.22,380.22,0,0,0,271,468.77Zm0-115.32V268.12A380.22,380.22,0,0,0,348.31,257a376.76,376.76,0,0,1,16.38,96.43Zm0-115.35V145.66c18.92,7.74,39.23,29.13,55.77,59.61,4,7.43,7.77,15.26,11.21,23.43A350.33,350.33,0,0,1,271,238.1ZM353.13,191a227.47,227.47,0,0,0-24.27-36.46,226.36,226.36,0,0,1,80,47.64A283,283,0,0,1,367,220.25,301.22,301.22,0,0,0,353.13,191Zm-194.26,0A301.22,301.22,0,0,0,145,220.25a283,283,0,0,1-41.85-18.11,226.36,226.36,0,0,1,80-47.64A227.47,227.47,0,0,0,158.87,191Zm-24,57.49a401.33,401.33,0,0,0-17.55,105H30.51A225,225,0,0,1,81.8,224.61,308.38,308.38,0,0,0,134.83,248.45Zm-17.55,135a401.32,401.32,0,0,0,17.55,105,308.38,308.38,0,0,0-53,23.84A225,225,0,0,1,30.51,383.45ZM145,516.64a301.22,301.22,0,0,0,13.89,29.29,227.47,227.47,0,0,0,24.27,36.46,226.23,226.23,0,0,1-80-47.64A282.38,282.38,0,0,1,145,516.64Zm208.15,29.29A301.22,301.22,0,0,0,367,516.64a283,283,0,0,1,41.85,18.11,226.36,226.36,0,0,1-80,47.64A227.47,227.47,0,0,0,353.13,545.93Zm24-57.49a401.32,401.32,0,0,0,17.55-105h86.77A225,225,0,0,1,430.2,512.28,308.38,308.38,0,0,0,377.17,488.44Zm17.55-135a401.33,401.33,0,0,0-17.55-105,308.38,308.38,0,0,0,53-23.84,225,225,0,0,1,51.29,128.84Z"/><path class="cls-1" d="M2449.17,112.45c-141.16,0-256,114.83-256,256s114.84,256,256,256,256-114.84,256-256S2590.33,112.45,2449.17,112.45Zm-15,125.65a350.33,350.33,0,0,1-67-9.4c3.44-8.17,7.18-16,11.21-23.43,16.54-30.48,36.85-51.87,55.77-59.61Zm0,30v85.33h-93.69A376.76,376.76,0,0,1,2356.86,257,380.22,380.22,0,0,0,2434.17,268.12Zm0,115.33v85.32a380.22,380.22,0,0,0-77.31,11.1,376.76,376.76,0,0,1-16.38-96.42Zm0,115.34v92.44c-18.92-7.74-39.23-29.13-55.77-59.61-4-7.42-7.77-15.26-11.21-23.43A350.33,350.33,0,0,1,2434.17,498.79Zm30,0a350.33,350.33,0,0,1,67,9.4c-3.45,8.17-7.18,16-11.21,23.43-16.54,30.48-36.85,51.87-55.77,59.61Zm0-30V383.45h93.69a376.76,376.76,0,0,1-16.38,96.42A380.22,380.22,0,0,0,2464.17,468.77Zm0-115.32V268.12a380.22,380.22,0,0,0,77.31-11.1,376.76,376.76,0,0,1,16.38,96.43Zm0-115.35V145.66c18.92,7.74,39.23,29.13,55.77,59.61,4,7.43,7.76,15.26,11.21,23.43A350.33,350.33,0,0,1,2464.17,238.1ZM2546.3,191A227.47,227.47,0,0,0,2522,154.5a226.36,226.36,0,0,1,80,47.64,283,283,0,0,1-41.85,18.11A301.22,301.22,0,0,0,2546.3,191ZM2352,191a301.22,301.22,0,0,0-13.89,29.29,283,283,0,0,1-41.85-18.11,226.36,226.36,0,0,1,80-47.64A227.47,227.47,0,0,0,2352,191Zm-24,57.49a401.33,401.33,0,0,0-17.55,105h-86.77A225,225,0,0,1,2275,224.61,308.38,308.38,0,0,0,2328,248.45Zm-17.55,135a401.32,401.32,0,0,0,17.55,105,308.38,308.38,0,0,0-53,23.84,225,225,0,0,1-51.29-128.83Zm27.7,133.19A301.22,301.22,0,0,0,2352,545.93a227.47,227.47,0,0,0,24.27,36.46,226.23,226.23,0,0,1-80-47.64A282.38,282.38,0,0,1,2338.15,516.64Zm208.15,29.29a301.22,301.22,0,0,0,13.89-29.29A283,283,0,0,1,2602,534.75a226.36,226.36,0,0,1-80,47.64A227.47,227.47,0,0,0,2546.3,545.93Zm24-57.49a401.32,401.32,0,0,0,17.55-105h86.77a225,225,0,0,1-51.29,128.83A308.38,308.38,0,0,0,2570.34,488.44Zm17.55-135a401.33,401.33,0,0,0-17.55-105,308.38,308.38,0,0,0,53-23.84,225,225,0,0,1,51.29,128.84Z"/><line class="cls-2" x1="582.44" y1="368.45" x2="2123.91" y2="368.45"/><line class="cls-2" x1="2744.43" y1="368.45" x2="4285.9" y2="368.45"/><path class="cls-1" d="M4864,255.53A255.93,255.93,0,1,0,4558,625.11a256.09,256.09,0,0,0,176-2.58,10,10,0,1,0-7.18-18.66c-78,30-162.48,16.36-225.58-31l9-46.76,4.31-1.4a31.15,31.15,0,0,0,20-39.2l-3.17-9.75a11.07,11.07,0,0,1,0-6.9,31.09,31.09,0,0,0-23.59-40.22l-22.57-4.41-43.55-33.11a10,10,0,0,0-9.14-1.55l-25.5,8.28a234.75,234.75,0,0,1,0-27.31c1,.94,1.66,1.58,2.06,2a10.18,10.18,0,0,0,1.84,2.25c2.09,1.9,4,2.76,7.93,2.76,3.64,0,9-.73,17.92-2,8.44-1.25,16.83-2.66,16.91-2.67a10,10,0,0,0,6.61-15.49l-12.26-18,17.56-12.56a9.84,9.84,0,0,0,2.86-3.16l27.23-47.52,11-11.76a42.25,42.25,0,0,0,8.15-44.8,46,46,0,0,0-18.22-21.45,235.56,235.56,0,0,1,143.2-50.47L4621.79,170l-66.21,23.21a10,10,0,0,0-5.94,5.62l-18.49,44.83a10,10,0,0,0,1.11,9.62l27,37.84c-3.87,3.52-7.64,8.66-12.13,15.05-2,2.8-3.84,5.44-5.13,6.92-1.11,1.29-2.23,2.55-3.34,3.8-5.81,6.53-11.82,13.29-16.09,22.32-9.38,19.86-7.48,42.94,4.95,60.24,12,16.72,31.84,25.23,53,22.74a78.87,78.87,0,0,0,9.77-2c8.57-2.12,11.29-2.33,14,.24,1.33,1.25,1.46,1.49,1.43,5.74a38.92,38.92,0,0,0,.89,9.91c1.5,6.14,5.35,10.39,8.45,13.8a22.16,22.16,0,0,1,3.63,4.63c3.12,7.47,1.76,11.61-1.21,20.68-.26.78-.52,1.57-.78,2.38-4.52,14,1.78,27.88,7.34,40.12,1.81,4,3.51,7.74,4.63,11,9,26.68,15.73,32.79,21.14,35.25a20.65,20.65,0,0,0,8.73,1.85c14.41,0,29.45-13.38,36.36-21.87,4.34-5.32,5.41-10.66,6.19-14.56a16.12,16.12,0,0,1,1.28-4.46,26.07,26.07,0,0,1,3.28-4.22,34.72,34.72,0,0,0,8.18-13.59c1.64-5.17,2.83-6.44,6.79-10.64l2.2-2.37c13.32-14.5,9.89-25.57,6.26-37.29-3.06-9.86,2.29-16.17,15.22-28.21,5.6-5.22,11.4-10.61,15.87-17.1,2-2.84,7.93-11.47,4.24-20-3.62-8.39-12.81-9.8-20.2-10.93-2.92-.45-7.32-1.12-8.73-2-6.18-4-10-12.49-13.63-20.65-.73-1.63-1.45-3.23-2.18-4.79-1.3-2.77-2.6-6.14-4-9.69-3.64-9.42-7.76-20.09-14.78-27.53-6.31-6.69-18.2-9.91-28.7-12.75-3.52-.95-6.86-1.86-9.05-2.67a10,10,0,0,0-5.75-.35c-5.1,1.19-8.29,2.51-10.66,4.41a12.56,12.56,0,0,0-3.56,4.79,114.3,114.3,0,0,1-11.79-7.18l-.19-.13a14.19,14.19,0,0,0-.89-9.62c-5.59-11.82-24.13-10.89-27.79-10.58-2.08.17-4.71.27-7.49.36-4.37.16-9.19.33-14,.87l.24-.69a25.58,25.58,0,0,1,24-16.89h5.69a10,10,0,0,0,0-20h-5.69a45.66,45.66,0,0,0-38.71,21.59l-14.91-20.89,14.67-35.57L4631.13,188a10.14,10.14,0,0,0,4.51-3.21l28.76-36.08a235.85,235.85,0,0,1,182.32,116.86,233.28,233.28,0,0,1,23.56,57.24l-4.24,3.78a26.75,26.75,0,0,0-8.9,19.43v.24l-6.91-19a25.08,25.08,0,0,0-4.5-7.73l-12.32-14.42a25.07,25.07,0,0,0-19.08-8.8h-15.08a14.48,14.48,0,0,0-12.05,22.52l1.52,2.29a110.7,110.7,0,0,1-33,19.61L4735,301.09v-8.83a10,10,0,0,0-3.1-7.23l-18.61-17.77a10,10,0,0,0-3.59-2.2L4693,259.17a10,10,0,1,0-6.63,18.87l14.72,5.17,14,13.33v7a10,10,0,0,0,1.14,4.63l25.87,49.56a10,10,0,0,0,12.33,4.76l7.53-2.78a130.85,130.85,0,0,0,46.92-30,10,10,0,0,0,1.25-12.62l-.53-.8h4.78a5.07,5.07,0,0,1,3.87,1.79l12.32,14.42a5.07,5.07,0,0,1,.92,1.57L4845,371.43a10,10,0,0,0,16.47,3.66l6.47-6.48a31.07,31.07,0,0,0,8.26-15c10,80.21-21.44,163.17-87.91,215.35a10,10,0,1,0,12.35,15.73A256,256,0,0,0,4864,255.53ZM4433.62,410.19l41.23,31.35a10.09,10.09,0,0,0,4.14,1.86l24.85,4.85a11.13,11.13,0,0,1,8.43,14.37,30.94,30.94,0,0,0,0,19.31l3.17,9.75a11.13,11.13,0,0,1-7.14,14l-9.93,3.22a10,10,0,0,0-6.73,7.63l-8,41.75a238.47,238.47,0,0,1-45.55-56.82A234.56,234.56,0,0,1,4409,418.19ZM4491.9,250.7l-11.76,12.61a9.53,9.53,0,0,0-1.37,1.85l-26.71,46.64-23.74,17a10,10,0,0,0-2.45,13.77l8.88,13c-5.12.76-9.71,1.39-12.77,1.73-.58-.57-1.2-1.14-1.83-1.73-2.38-2.21-5.68-5.16-10.61-9.46A236.27,236.27,0,0,1,4480,212.34a26,26,0,0,1,16.2,14.83A22.18,22.18,0,0,1,4491.9,250.7Zm81.53,54.65c4.46-2.51,14.81-2.88,22.37-3.15,3-.11,5.89-.21,8.45-.42a27.58,27.58,0,0,1,4.26,0,10,10,0,0,0,4.6,12.44c1.87,1,4.48,2.74,7.25,4.59,7.81,5.21,16.67,11.11,25,11.64a16.61,16.61,0,0,0,13.59-5.66l.42-.42a10.72,10.72,0,0,0,2.68-3.28c1.59.46,3.27.91,5,1.38,5.92,1.6,16.94,4.59,19.37,7.17,4.33,4.58,7.7,13.31,10.67,21,1.51,3.89,2.93,7.56,4.52,11q1,2.21,2,4.49c4.62,10.3,9.85,22,20.94,29.21,5,3.29,11.2,4.24,16.64,5.07l2.18.35c-3.23,4.5-7.83,8.78-12.69,13.31-12.38,11.53-27.78,25.88-20.69,48.76,3.35,10.81,3.51,12-1.88,17.84-.73.8-1.42,1.53-2.06,2.21-4.61,4.91-8.25,8.79-11.27,18.29-.88,2.75-2,4-4.07,6.35a45.11,45.11,0,0,0-5.6,7.41,32.52,32.52,0,0,0-3.61,10.62c-.6,3-.93,4.44-2.09,5.87a58.21,58.21,0,0,1-12.63,11.16c-4.7,3-7.44,3.39-8.38,3.33-1.06-1.14-4.93-6.15-10.77-23.48-1.44-4.28-3.44-8.68-5.37-12.93-4.26-9.38-8.66-19.08-6.52-25.71.25-.78.5-1.55.75-2.29,3.42-10.43,6.65-20.28.67-34.62-1.82-4.37-4.72-7.56-7.28-10.38-1.66-1.82-3.53-3.88-3.82-5.07a21.88,21.88,0,0,1-.33-5.06c0-5.22.09-13.12-7.76-20.47-11.07-10.36-24-7.17-32.51-5.05a64.61,64.61,0,0,1-7.3,1.52c-14,1.64-26.59-3.66-34.42-14.55-8.19-11.4-9.38-26.74-3.1-40,3-6.43,7.63-11.6,12.95-17.58q1.74-1.95,3.5-4c1.95-2.25,4.1-5.29,6.37-8.52C4566.19,313.87,4571.24,306.71,4573.43,305.35Z"/><path class="cls-1" d="M2739,225a32,32,0,1,0,32,32A32,32,0,0,0,2739,225Zm0,48a16,16,0,1,1,16-16A16,16,0,0,1,2739,273Z"/><rect class="cls-1" x="2185.17" y="510.28" width="16" height="16"/><rect class="cls-1" x="2193.17" y="154.5" width="16" height="16"/><rect class="cls-1" x="2739.01" y="23.5" width="16" height="24"/><rect class="cls-1" x="2739.01" y="95.5" width="16" height="24"/><rect class="cls-1" x="2771.01" y="63.5" width="24" height="16"/><rect class="cls-1" x="2699.01" y="63.5" width="24" height="16"/><rect class="cls-1" x="2760.45" y="38.04" width="24" height="16" transform="translate(779.47 1973.91) rotate(-45)"/><rect class="cls-1" x="2709.56" y="88.98" width="24" height="16" transform="translate(728.55 1952.84) rotate(-45)"/><rect class="cls-1" x="2764.45" y="84.98" width="16" height="24" transform="translate(743.46 1988.82) rotate(-45)"/><rect class="cls-1" x="2713.52" y="34.02" width="16" height="24" transform="translate(764.58 1937.88) rotate(-45)"/><rect class="cls-1" x="2435.01" y="633.5" width="16" height="24"/><rect class="cls-1" x="2435.01" y="705.5" width="16" height="24"/><rect class="cls-1" x="2467.01" y="673.5" width="24" height="16"/><rect class="cls-1" x="2395.01" y="673.5" width="24" height="16"/><rect class="cls-1" x="2456.46" y="648.04" width="24" height="16" transform="translate(259.11 1937.61) rotate(-45)"/><rect class="cls-1" x="2405.53" y="698.95" width="24" height="16" transform="translate(208.19 1916.52) rotate(-45)"/><rect class="cls-1" x="2460.45" y="694.97" width="16" height="24" transform="translate(223.26 1952.84) rotate(-45.01)"/><rect class="cls-1" x="2409.56" y="644.04" width="16" height="24" transform="translate(244.37 1901.93) rotate(-45.01)"/><rect class="cls-1" x="2169.17" y="526.28" width="16" height="16"/><rect class="cls-1" x="2185.17" y="542.28" width="16" height="16"/><rect class="cls-1" x="2201.17" y="526.28" width="16" height="16"/><rect class="cls-1" x="2675.01" y="534.28" width="16" height="16"/><rect class="cls-1" x="2659.01" y="550.28" width="16" height="16"/><rect class="cls-1" x="2675.01" y="566.28" width="16" height="16"/><rect class="cls-1" x="2691.01" y="550.28" width="16" height="16"/><rect class="cls-1" x="2435.01" y="39.5" width="16" height="16"/><rect class="cls-1" x="2419.01" y="55.5" width="16" height="16"/><rect class="cls-1" x="2435.01" y="71.5" width="16" height="16"/><rect class="cls-1" x="2451.01" y="55.5" width="16" height="16"/><rect class="cls-1" x="2328.31" y="637.5" width="16" height="16"/><rect class="cls-1" x="2571.01" y="39.5" width="16" height="16"/><rect class="cls-1" x="2603.01" y="71.5" width="16" height="16"/></g></svg>